PathFileType	4	(X/Y/Z)	Run_500 02
DataRate	CameraRate	NumFrames	NumMarkers	Units	OrigDataRate	OrigDataStartFrame	OrigNumFrames
100	100	4	42	mm	100	179	128
Frame#	Time	RASI			RPSI			RTH1			RTH2			RTH3			LTH1			LTH2			LTH3			RTB1			RTB2			RTB3			LTB1			LTB2			LTB3			RCAL			RTOE			RMT5			LCAL			LTOE			LMT5			LACR			RACR			CLAV			C7			RUA1			RUA2			RUA3			RLEL			LUA1			LUA2			LUA3			LLEL			LMEL			RFAsuperior			RFAradius			RFAulna			LFAsuperior			LFAradius			LPSI			RMEL			LFAulna			LASI			
		X1	Y1	Z1	X2	Y2	Z2	X3	Y3	Z3	X4	Y4	Z4	X5	Y5	Z5	X6	Y6	Z6	X7	Y7	Z7	X8	Y8	Z8	X9	Y9	Z9	X10	Y10	Z10	X11	Y11	Z11	X12	Y12	Z12	X13	Y13	Z13	X14	Y14	Z14	X15	Y15	Z15	X16	Y16	Z16	X17	Y17	Z17	X18	Y18	Z18	X19	Y19	Z19	X20	Y20	Z20	X21	Y21	Z21	X22	Y22	Z22	X23	Y23	Z23	X24	Y24	Z24	X25	Y25	Z25	X26	Y26	Z26	X27	Y27	Z27	X28	Y28	Z28	X29	Y29	Z29	X30	Y30	Z30	X31	Y31	Z31	X32	Y32	Z32	X33	Y33	Z33	X34	Y34	Z34	X35	Y35	Z35	X36	Y36	Z36	X37	Y37	Z37	X38	Y38	Z38	X39	Y39	Z39	X40	Y40	Z40	X41	Y41	Z41	X42	Y42	Z42	

163	2.17	1051.356545	972.257205	-241.731196	886.917382	1040.80157	-285.794096	978.284621	855.730641	-195.546224	936.552264	708.820472	-199.375869	996.686223	559.137558	-200.529533	972.959554	872.458137	-538.06079	961.667676	709.8343180000001	-479.117584	1057.557036	600.631997	-477.600608	881.667333	431.898946	-265.660368	850.687485	523.622251	-195.864603	705.876862	504.77865	-275.13576	1138.035843	393.840629	-391.742973	1022.845633	307.692096	-423.692019	1042.604597	198.714726	-349.677986	607.012466	652.873938	-281.040923	538.15389	419.186755	-282.400412	526.143146	477.733633	-193.792993	876.788471	103.985696	-297.731591	1113.767415	72.04757600000001	-308.961452	1054.150937	35.594138	-396.996083	996.764456	1471.115941	-519.271202	1048.29149	1452.568997	-194.870364	1090.595281	1424.673161	-332.385005	964.877896	1495.794885	-353.903014	937.578249	1366.45215	-122.503007	975.954967	1304.577204	-92.90935399999999	901.894679	1242.549981	-43.095546	864.341404	1193.236148	-9.165556	885.2280960000001	1386.293498	-563.201748	899.395403	1307.639121	-592.781819	813.12527	1258.868974	-607.871143	782.416613	1198.398302	-627.772946	775.124819	1178.419867	-539.808035	939.5124520000001	1108.570614	-10.857025	1062.720441	1013.948603	-108.695282	1032.077181	985.018179	-54.563307	833.0231240000001	1128.098834	-629.834897	1006.865789	1084.453965	-557.4257229999999	872.176164	1053.027167	-398.372847	852.639849	1158.053901	-91.300363	979.080126	1027.270643	-589.56488	1038.052573	982.379081	-434.850012	
164	2.18	1046.875759	972.295291	-240.437477	882.827707	1040.709709	-287.89943	975.78329	855.774494	-194.923679	948.447008	707.675868	-198.721054	1023.034184	563.67206	-198.714315	972.776938	871.629128	-537.24618	950.846089	709.237027	-479.149761	1042.135282	595.195332	-474.595631	917.453468	431.162616	-265.112597	882.294568	520.118488	-192.897454	738.360918	495.719119	-272.771798	1110.149125	383.987839	-387.023275	991.681341	303.404164	-420.728225	1003.617128	194.24596	-346.860771	629.139438	638.11382	-277.980275	578.81528	399.778854	-276.777449	565.146608	457.478118	-187.662957	832.499274	105.562744	-297.747996	1069.091106	70.570026	-307.672998	1009.111452	35.836377	-397.283548	998.238662	1469.503912	-519.411589	1045.294961	1452.035639	-194.109064	1089.252915	1423.283788	-330.723648	964.163589	1494.910392	-353.520166	931.194332	1368.766247	-123.419174	967.065047	1306.971934	-92.750321	889.078802	1248.091962	-44.693802	849.883197	1199.425209	-11.113492	890.400766	1378.684295	-562.2949180000001	909.6424050000001	1300.685462	-593.267791	827.605589	1246.340894	-610.5964	800.716218	1184.514803	-631.052055	790.072852	1164.743751	-542.9718339999999	922.71207	1112.512889	-9.176755999999999	1047.789839	1012.640846	-100.348364	1011.380092	984.805043	-49.118613	854.320021	1116.281451	-631.263479	1025.935698	1076.497035	-553.171094	871.582613	1054.038932	-400.649691	840.374942	1163.528274	-93.24478999999999	1000.755287	1018.541455	-585.842296	1037.446572	983.5590580000001	-437.399654	
165	2.19	1042.75972	973.2067489999999	-238.014548	879.086535	1041.900072	-289.86387	972.530976	856.768716	-192.825878	960.134667	710.045374	-198.689337	1049.306017	572.793961	-197.834771	971.4475619999999	871.532162	-536.922943	939.539149	710.016139	-480.544176	1025.566353	591.302312	-472.78086	953.413715	432.837686	-264.53593	913.250343	518.481442	-191.516915	770.120258	485.202363	-270.31551	1080.933893	376.727239	-382.690896	959.503738	301.526865	-418.154425	965.2540760000001	192.063061	-344.22876	649.379404	619.067939	-274.119097	621.157725	377.148998	-272.19629	603.783475	433.386636	-182.585086	789.719526	107.999388	-296.759588	1025.617691	69.891085	-306.280035	964.990148	36.694852	-396.916853	1000.821184	1469.490426	-519.613696	1041.120083	1453.834189	-193.227666	1087.514919	1423.596949	-328.665703	962.869381	1495.263087	-354.14764	923.326227	1373.270227	-125.40352	957.045402	1312.190899	-92.427813	876.128035	1256.038418	-46.518192	835.133729	1208.150554	-13.35283	896.070376	1374.17638	-562.196804	919.843693	1296.640428	-593.526532	841.715031	1237.781607	-612.354958	818.126926	1174.858562	-633.02652	804.315924	1155.214799	-544.744741	905.556554	1119.277566	-8.213305	1033.553407	1016.701998	-92.86303100000001	991.8725930000001	989.405048	-45.594925	875.18577	1109.541382	-631.714694	1045.067754	1075.408151	-548.651108	870.906742	1056.451823	-402.745085	826.855273	1172.489784	-95.333842	1023.587892	1016.541757	-582.062873	1036.758188	986.140144	-439.767833	
166	2.2	1039.254395	974.914233	-235.383535	876.256544	1044.532092	-291.655517	969.918218	859.480508	-190.518292	971.634357	715.639176	-199.397674	1074.168283	586.099009	-197.957938	968.9708460000001	872.002801	-536.752709	928.086962	711.6775259999999	-482.109278	1007.516234	588.828769	-471.395425	989.03433	437.183433	-263.335094	942.863681	519.134629	-191.303185	802.18324	473.545351	-268.022783	1050.749629	371.721142	-379.627255	926.369173	301.78656	-416.484422	927.372993	191.760336	-342.742728	668.58923	595.766898	-270.005836	665.310816	352.29042	-268.837158	643.076929	406.305909	-178.577446	748.228776	111.775591	-295.997994	983.277476	69.730249	-305.531295	921.788357	37.581933	-396.396648	1004.628201	1470.959129	-519.88579	1035.839697	1457.850542	-192.378685	1085.651174	1425.715138	-326.397072	961.735397	1497.513903	-355.89374	914.4909270000001	1379.646431	-128.361834	946.225189	1319.683256	-92.116438	863.116517	1265.705237	-48.464053	820.118575	1218.771484	-15.961689	902.882797	1372.445658	-564.362402	929.769029	1294.926268	-593.341499	854.344687	1233.075345	-613.2760039999999	833.394328	1169.345432	-633.908359	817.528386	1149.83697	-545.414714	888.462714	1128.535173	-7.901742	1019.556006	1024.908256	-86.412909	973.848202	997.842718	-43.160551	893.947706	1107.418921	-631.0839580000001	1063.041927	1081.827977	-544.241903	870.22703	1059.65932	-404.547443	812.85797	1183.652657	-97.77209499999999	1045.998998	1021.971138	-578.394369	1036.065923	989.515836	-441.842961	
